<svg xmlns="http://www.w3.org/2000/svg"
	class="spritesheet hidden" 
	width="24" 
	height="24"
	viewBox="0 0 24 24"
	fill="currentColor"
	stroke="none"
	stroke-linejoin="round"
	stroke-linecap="round"
	stroke-width="1.5"
>
	<!-- https://ryantrimble.com/blog/what-the-heck-is-an-svg-sprite-sheet.html#using-the-svgs -->
	<!-- https://codepen.io/nonsalant/pen/xxvVJvO/81754d080305503c0974e7278a2db624?editors=1100 -->
	<defs><style>.sprite { display: none; } .sprite:target { display: inline; }</style></defs>
	<g class="sprite" id="share-icon" fill="none" stroke="currentColor" stroke-width="2">
	<path d="M4 12v8a2 2 0 0 0 2 2h12a2 2 0 0 0 2-2v-8"></path>
	<polyline points="16 6 12 2 8 6"></polyline><line x1="12" y1="2" x2="12" y2="15"></line>
	</g>
	<g class="sprite" id="close-icon" stroke="currentColor" stroke-width="0"><path d="M13.05 12l3.2-3.2c0.3-0.3 0.3-0.8 0-1.1-0.3-0.3-0.8-0.3-1.1 0L12 10.95l-3.2-3.2c-0.3-0.3-0.8-0.3-1.1 0-0.15 0.15-0.235 0.35-0.235 0.55s0.085 0.4 0.235 0.55l3.2 3.2-3.2 3.2c-0.15 0.15-0.235 0.35-0.235 0.55s0.085 0.4 0.235 0.55c0.3 0.3 0.8 0.3 1.1 0l3.2-3.2 3.2 3.2c0.3 0.3 0.8 0.3 1.1 0 0.3-0.3 0.3-0.8 0-1.1L13.05 12z"></path></g>
	<g class="sprite" id="move-icon" stroke="currentColor" stroke-width="0"><path d="M 12 3.07 L 6.96 8.11 L 8.04 9.16 L 11.25 6.45 L 11.25 21 L 12.75 21 L 12.75 6.45 L 15.96 9.16 L 17.04 8.11 Z"></path></g>
 	<g class="sprite" id="play-solid"><path fill-rule="evenodd" d="M4.5 5.653c0-1.427 1.529-2.33 2.779-1.643l11.54 6.347c1.295.712 1.295 2.573 0 3.286L7.28 19.99c-1.25.687-2.779-.217-2.779-1.643V5.653Z" clip-rule="evenodd" /></g>
	<g class="sprite" id="pause-solid"><path fill-rule="evenodd" d="M6.75 5.25a.75.75 0 0 1 .75-.75H9a.75.75 0 0 1 .75.75v13.5a.75.75 0 0 1-.75.75H7.5a.75.75 0 0 1-.75-.75V5.25Zm7.5 0A.75.75 0 0 1 15 4.5h1.5a.75.75 0 0 1 .75.75v13.5a.75.75 0 0 1-.75.75H15a.75.75 0 0 1-.75-.75V5.25Z" clip-rule="evenodd" /></g>
	<g class="sprite" id="play-circle-solid">
		<!-- <path fill-rule="evenodd" d="M2.25 12c0-5.385 4.365-9.75 9.75-9.75s9.75 4.365 9.75 9.75-4.365 9.75-9.75 9.75S2.25 17.385 2.25 12Zm14.024-.983a1.125 1.125 0 0 1 0 1.966l-5.603 3.113A1.125 1.125 0 0 1 9 15.113V8.887c0-.857.921-1.4 1.671-.983l5.603 3.113Z" clip-rule="evenodd" /> -->
		<!-- Circle Path -->
  		<path fill-rule="evenodd" d="M2.25 12c0-5.385 4.365-9.75 9.75-9.75s9.75 4.365 9.75 9.75-4.365 9.75-9.75 9.75S2.25 17.385 2.25 12Z" clip-rule="evenodd" />
  		<!-- Arrow Path -->
  		<path fill="#444" fill-rule="evenodd" d="M16.274 11.017a1.125 1.125 0 0 1 0 1.966l-5.603 3.113A1.125 1.125 0 0 1 9 15.113V8.887c0-.857.921-1.4 1.671-.983l5.603 3.113Z" clip-rule="evenodd" />
	</g>
	<g class="sprite" id="play-circle" fill="none" stroke="currentColor"><path stroke-width="1.75" d="M21 12a9 9 0 1 1-18 0 9 9 0 0 1 18 0Z" /><path fill="currentColor" d="M15.91 11.672a.375.375 0 0 1 0 .656l-5.603 3.113a.375.375 0 0 1-.557-.328V8.887c0-.286.307-.466.557-.327l5.603 3.112Z" /></g>
	<g class="sprite" id="pause-circle" fill="none" stroke="currentColor"><path stroke-width="1.75" d="M21 12a9 9 0 1 1-18 0 9 9 0 0 1 18 0Z" /><path stroke-width="2" d="M14.25 9v6m-4.5 0V9" /></g>
	<g class="sprite" id="unmute-icon"><path d="M13.5 4.06c0-1.336-1.616-2.005-2.56-1.06l-4.5 4.5H4.508c-1.141 0-2.318.664-2.66 1.905A9.76 9.76 0 0 0 1.5 12c0 .898.121 1.768.35 2.595.341 1.24 1.518 1.905 2.659 1.905h1.93l4.5 4.5c.945.945 2.561.276 2.561-1.06V4.06ZM18.584 5.106a.75.75 0 0 1 1.06 0c3.808 3.807 3.808 9.98 0 13.788a.75.75 0 0 1-1.06-1.06 8.25 8.25 0 0 0 0-11.668.75.75 0 0 1 0-1.06Z" /><path d="M15.932 7.757a.75.75 0 0 1 1.061 0 6 6 0 0 1 0 8.486.75.75 0 0 1-1.06-1.061 4.5 4.5 0 0 0 0-6.364.75.75 0 0 1 0-1.06Z" /></g>
	<g class="sprite" id="mute-icon"><path d="M13.5 4.06c0-1.336-1.616-2.005-2.56-1.06l-4.5 4.5H4.508c-1.141 0-2.318.664-2.66 1.905A9.76 9.76 0 0 0 1.5 12c0 .898.121 1.768.35 2.595.341 1.24 1.518 1.905 2.659 1.905h1.93l4.5 4.5c.945.945 2.561.276 2.561-1.06V4.06ZM17.78 9.22a.75.75 0 1 0-1.06 1.06L18.44 12l-1.72 1.72a.75.75 0 1 0 1.06 1.06l1.72-1.72 1.72 1.72a.75.75 0 1 0 1.06-1.06L20.56 12l1.72-1.72a.75.75 0 1 0-1.06-1.06l-1.72 1.72-1.72-1.72Z" /></g>
</svg>